<svg width="24" height="24" viewBox="0 0 24 24" fill="none" xmlns="http://www.w3.org/2000/svg">
<path d="M10.3526 7.14602L14.8526 11.646C14.9464 11.7398 14.999 11.8669 14.999 11.9995C14.999 12.1321 14.9464 12.2593 14.8526 12.353L10.3526 16.853C10.2583 16.9441 10.132 16.9945 10.0009 16.9934C9.86983 16.9922 9.74442 16.9396 9.65172 16.8469C9.55902 16.7542 9.50643 16.6288 9.50529 16.4977C9.50415 16.3666 9.55455 16.2403 9.64563 16.146L13.7926 12L9.64563 7.85402C9.55189 7.76026 9.49924 7.6331 9.49924 7.50052C9.49924 7.36794 9.55189 7.24079 9.64563 7.14702C9.73939 7.05329 9.86655 7.00063 9.99913 7.00063C10.1317 7.00063 10.2589 7.05229 10.3526 7.14602Z" fill="#231F20" fill-opacity="0.75"/>
</svg>
