<svg width="19" height="18" viewBox="0 0 19 18" fill="none" xmlns="http://www.w3.org/2000/svg">
<path d="M15.1288 13.4572V7.77149C15.3699 7.76281 15.6018 7.6763 15.7897 7.52489C15.9777 7.37347 16.1115 7.1653 16.1713 6.93149C16.238 6.69302 16.2225 6.43905 16.1272 6.21047C16.032 5.9819 15.8626 5.79204 15.6463 5.67149L10.0588 2.44649C9.88818 2.35056 9.69575 2.30017 9.50003 2.30017C9.3043 2.30017 9.11188 2.35056 8.94128 2.44649L3.35378 5.67149C3.13748 5.79204 2.96807 5.9819 2.87283 6.21047C2.77759 6.43905 2.76208 6.69302 2.82878 6.93149C2.89059 7.17263 3.03115 7.38623 3.22816 7.5384C3.42517 7.69057 3.66734 7.77261 3.91628 7.77149H4.01378V13.449H3.92378C3.62541 13.449 3.33926 13.5675 3.12828 13.7785C2.9173 13.9895 2.79878 14.2756 2.79878 14.574C2.79878 14.8724 2.9173 15.1585 3.12828 15.3695C3.33926 15.5805 3.62541 15.699 3.92378 15.699H15.0763C15.3581 15.6823 15.6234 15.5603 15.8195 15.3572C16.0155 15.154 16.128 14.8845 16.1346 14.6023C16.1413 14.32 16.0415 14.0456 15.8552 13.8335C15.6688 13.6214 15.4095 13.4871 15.1288 13.4572ZM3.91628 7.02149C3.83361 7.02044 3.75357 6.99236 3.68835 6.94156C3.62314 6.89076 3.57633 6.82001 3.55509 6.74012C3.53384 6.66023 3.53931 6.57558 3.57067 6.49909C3.60203 6.4226 3.65756 6.35847 3.72878 6.31649L9.31628 3.09974C9.37161 3.06594 9.43519 3.04806 9.50003 3.04806C9.56486 3.04806 9.62845 3.06594 9.68378 3.09974L15.275 6.31649C15.3493 6.35649 15.4078 6.42033 15.4413 6.49772C15.4748 6.5751 15.4812 6.66151 15.4595 6.743C15.4379 6.82448 15.3894 6.89629 15.3219 6.94682C15.2544 6.99735 15.1718 7.02365 15.0875 7.02149H3.91628ZM14.3788 7.77149V13.449H11.675V7.77149H14.3788ZM10.9213 7.77149V13.449H8.21378V7.77149H10.9213ZM7.46378 7.77149V13.449H4.76378V7.77149H7.46378ZM15.0763 14.949H3.92378C3.82432 14.949 3.72894 14.9095 3.65861 14.8392C3.58829 14.7688 3.54878 14.6734 3.54878 14.574C3.54878 14.4745 3.58829 14.3792 3.65861 14.3088C3.72894 14.2385 3.82432 14.199 3.92378 14.199H15.0763C15.1757 14.199 15.2711 14.2385 15.3414 14.3088C15.4118 14.3792 15.4513 14.4745 15.4513 14.574C15.4513 14.6734 15.4118 14.7688 15.3414 14.8392C15.2711 14.9095 15.1757 14.949 15.0763 14.949Z" fill="#231F20"/>
</svg>
