<svg width="25" height="24" viewBox="0 0 25 24" fill="none" xmlns="http://www.w3.org/2000/svg">
<path d="M10.2987 20.75C11.2381 20.75 11.9997 19.9884 11.9997 19.049C11.9997 18.1096 11.2381 17.348 10.2987 17.348C9.35922 17.348 8.59766 18.1096 8.59766 19.049C8.59766 19.9884 9.35922 20.75 10.2987 20.75Z" stroke="#2C1D10" stroke-opacity="0.75" stroke-width="1.5" stroke-linecap="round" stroke-linejoin="round"/>
<path d="M17.7098 20.75C18.6492 20.75 19.4108 19.9884 19.4108 19.049C19.4108 18.1096 18.6492 17.348 17.7098 17.348C16.7704 17.348 16.0088 18.1096 16.0088 19.049C16.0088 19.9884 16.7704 20.75 17.7098 20.75Z" stroke="#2C1D10" stroke-opacity="0.75" stroke-width="1.5" stroke-linecap="round" stroke-linejoin="round"/>
<path d="M6.356 5.555L8.366 11.919C8.675 12.897 8.829 13.386 9.126 13.748C9.386 14.068 9.725 14.315 10.108 14.468C10.543 14.641 11.055 14.641 12.081 14.641H15.936C16.962 14.641 17.474 14.641 17.908 14.468C18.292 14.315 18.63 14.068 18.891 13.748C19.187 13.386 19.341 12.897 19.651 11.919L20.06 10.623L20.3 9.857L20.631 8.807C20.7491 8.4325 20.7774 8.03544 20.7134 7.648C20.6495 7.26055 20.4952 6.89361 20.263 6.57691C20.0309 6.26021 19.7274 6.00266 19.3771 5.82511C19.0268 5.64757 18.6397 5.55503 18.247 5.555H6.356ZM6.356 5.555L6.345 5.518C6.30277 5.37656 6.25608 5.23649 6.205 5.098C6.00255 4.58554 5.65923 4.14082 5.21473 3.81523C4.77022 3.48963 4.24266 3.29645 3.693 3.258C3.59 3.25 3.477 3.25 3.25 3.25" stroke="#2C1D10" stroke-opacity="0.75" stroke-width="1.5" stroke-linecap="round" stroke-linejoin="round"/>
</svg>
