<svg width="19" height="18" viewBox="0 0 19 18" fill="none" xmlns="http://www.w3.org/2000/svg">
<g clip-path="url(#clip0_2355_706)">
<path d="M3.125 4.5L5.75 1.875M3.125 6.75L5.75 9.375H3.125V1.875H16.625V9.375H10.625M16.625 4.5L14 1.875M16.625 6.75L14 9.375M2.75 17.625L6.875 15.375H12.125L16.25 13.125L15.875 12L12.125 12.75L7.25 12.375L8.75 10.5L8.375 9.375L4.625 11.625L2.75 13.875L0.875 14.625" stroke="#231F20" stroke-miterlimit="10" stroke-linecap="round" stroke-linejoin="round"/>
<path d="M10.625 4.125H9.125L8.75 4.875L9.125 5.625H10.625L11 6.375L10.625 7.125H9.125M9.875 4.125V3.375M9.875 7.875V7.125" stroke="#231F20" stroke-miterlimit="10" stroke-linecap="round" stroke-linejoin="round"/>
</g>
<defs>
<clipPath id="clip0_2355_706">
<rect width="18" height="18" fill="#231F20" transform="translate(0.5)"/>
</clipPath>
</defs>
</svg>
