<svg width="18" height="18" viewBox="0 0 18 18" fill="none" xmlns="http://www.w3.org/2000/svg">
<path d="M6.75 11.25H9.5625C10.1813 11.25 10.6875 10.7438 10.6875 10.125C10.6875 9.50625 10.1813 9 9.5625 9H8.4375C7.81875 9 7.3125 8.49375 7.3125 7.875C7.3125 7.25625 7.81875 6.75 8.4375 6.75H11.25M9 5.0625V6.37537M9 10.6875V12.9375M16.3125 9C16.3125 10.9394 15.5421 12.7994 14.1707 14.1707C12.7994 15.5421 10.9394 16.3125 9 16.3125C7.0606 16.3125 5.20064 15.5421 3.82928 14.1707C2.45792 12.7994 1.6875 10.9394 1.6875 9C1.6875 7.0606 2.45792 5.20064 3.82928 3.82928C5.20064 2.45792 7.0606 1.6875 9 1.6875C10.9394 1.6875 12.7994 2.45792 14.1707 3.82928C15.5421 5.20064 16.3125 7.0606 16.3125 9Z" stroke="#231F20" stroke-miterlimit="10" stroke-linejoin="round"/>
</svg>
