<svg width="24" height="24" viewBox="0 0 24 24" fill="none" xmlns="http://www.w3.org/2000/svg">
<path d="M12 21.0001C10.7613 21.0001 9.59467 20.7634 8.50001 20.2901C7.40534 19.8161 6.45201 19.1728 5.64001 18.3601C4.82801 17.5474 4.18467 16.5941 3.71001 15.5001C3.23534 14.4061 2.99867 13.2394 3.00001 12.0001C3.00001 10.7574 3.23667 9.58976 3.71001 8.49709C4.18401 7.40376 4.82734 6.45142 5.64001 5.64009C6.45267 4.82876 7.40601 4.18542 8.50001 3.71009C9.59467 3.23676 10.7613 3.00009 12 3.00009C13.2427 3.00009 14.4103 3.23676 15.503 3.71009C16.5963 4.18409 17.549 4.82742 18.361 5.64009C19.173 6.45276 19.816 7.40509 20.29 8.49709C20.7633 9.59042 21 10.7581 21 12.0001C21 13.2388 20.7633 14.4054 20.29 15.5001C19.816 16.5948 19.1727 17.5481 18.36 18.3601C17.5473 19.1721 16.595 19.8154 15.503 20.2901C14.411 20.7648 13.2433 21.0014 12 21.0001ZM12 20.0081C12.5867 19.2541 13.0707 18.5138 13.452 17.7871C13.8327 17.0604 14.1423 16.2471 14.381 15.3471H9.61901C9.88367 16.2978 10.1997 17.1364 10.567 17.8631C10.935 18.5898 11.4127 19.3048 12 20.0081ZM10.727 19.8581C10.2603 19.3081 9.83434 18.6281 9.44901 17.8181C9.06367 17.0088 8.77701 16.1848 8.58901 15.3461H4.75401C5.32734 16.5894 6.13967 17.6094 7.19101 18.4061C8.24301 19.2021 9.42167 19.6861 10.727 19.8581ZM13.273 19.8581C14.5783 19.6861 15.757 19.2021 16.809 18.4061C17.8603 17.6094 18.6727 16.5894 19.246 15.3461H15.412C15.1587 16.1974 14.8397 17.0278 14.455 17.8371C14.0697 18.6471 13.6757 19.3214 13.273 19.8581ZM4.34601 14.3471H8.38101C8.30501 13.9364 8.25167 13.5364 8.22101 13.1471C8.18901 12.7584 8.17301 12.3761 8.17301 12.0001C8.17301 11.6241 8.18867 11.2418 8.22001 10.8531C8.25134 10.4644 8.30467 10.0644 8.38001 9.65309H4.34701C4.23834 9.99976 4.15334 10.3774 4.09201 10.7861C4.03067 11.1941 4.00001 11.5988 4.00001 12.0001C4.00001 12.4014 4.03034 12.8064 4.09101 13.2151C4.15167 13.6238 4.23667 14.0008 4.34601 14.3461M9.38101 14.3461H14.619C14.695 13.9361 14.7483 13.5428 14.779 13.1661C14.811 12.7901 14.827 12.4014 14.827 12.0001C14.827 11.5988 14.8113 11.2101 14.78 10.8341C14.7487 10.4581 14.6953 10.0648 14.62 9.65409H9.38001C9.30467 10.0641 9.25134 10.4574 9.22001 10.8341C9.18867 11.2101 9.17301 11.5988 9.17301 12.0001C9.17301 12.4014 9.18867 12.7901 9.22001 13.1661C9.25134 13.5421 9.30567 13.9354 9.38101 14.3461ZM15.62 14.3461H19.654C19.7627 14.0001 19.8477 13.6231 19.909 13.2151C19.9697 12.8064 20 12.4014 20 12.0001C20 11.5988 19.9697 11.1938 19.909 10.7851C19.8483 10.3764 19.7633 9.99942 19.654 9.65409H15.619C15.695 10.0641 15.7483 10.4638 15.779 10.8531C15.811 11.2424 15.827 11.6248 15.827 12.0001C15.827 12.3754 15.8113 12.7578 15.78 13.1471C15.7487 13.5364 15.6953 13.9364 15.62 14.3471M15.412 8.65409H19.246C18.66 7.38476 17.8573 6.36476 16.838 5.59409C15.8187 4.82342 14.6303 4.33309 13.273 4.12309C13.7397 4.73709 14.1593 5.43942 14.532 6.23009C14.9047 7.02009 15.198 7.82809 15.412 8.65409ZM9.61901 8.65409H14.381C14.117 7.71543 13.7913 6.86676 13.404 6.10809C13.0167 5.34942 12.5487 4.64409 12 3.99209C11.4513 4.64342 10.9833 5.34876 10.596 6.10809C10.2087 6.86742 9.88234 7.71609 9.61901 8.65409ZM4.75501 8.65409H8.58901C8.80301 7.82876 9.09634 7.02076 9.46901 6.23009C9.84167 5.43942 10.2613 4.73709 10.728 4.12309C9.35867 4.33376 8.16734 4.82709 7.15401 5.60309C6.14067 6.38042 5.34067 7.39709 4.75401 8.65309" fill="#312124"/>
</svg>
