<svg width="210" height="91" viewBox="0 0 210 91" fill="none" xmlns="http://www.w3.org/2000/svg">
<path fill-rule="evenodd" clip-rule="evenodd" d="M67.0801 0.0695022C67.3834 0.191715 67.3284 0.412906 67.6312 0.290693C67.9346 0.168921 67.6864 0.0695022 67.0801 0.0695022C66.7771 -0.0522708 66.4737 0.0695022 67.0801 0.0695022ZM39.9623 3.79178C39.4773 3.88673 37.9891 4.18083 36.6552 4.44416C33.4977 5.06842 27.5891 7.82348 24.1304 10.2844C19.9181 13.2813 14.6802 19.0815 12.5438 23.115C9.75138 28.3877 8.87612 32.1033 8.87744 38.6769C8.8792 48.7303 11.9856 56.9992 18.2351 63.5871C19.4636 64.8823 20.6382 65.9417 20.8455 65.9417C21.0527 65.9417 21.2255 59.3638 21.229 51.3246C21.236 34.9093 21.4521 33.1953 24.1564 28.0645C30.125 16.7397 46.2744 12.65 57.1907 19.6987C62.6359 23.2144 66.4262 28.7491 67.7843 35.1687C70.2442 46.7975 62.5032 59.1958 50.9007 62.2085C47.3278 63.1365 45.1747 63.0697 44.6076 62.0141C44.0521 60.9789 44.0088 51.0207 44.5561 50.1592C44.7713 49.8201 46.3056 48.831 47.9667 47.9611C51.9202 45.8892 53.8519 43.2199 53.8519 39.8282C53.8519 34.1163 48.617 29.5883 43.2042 30.6183C41.0382 31.0307 38.6333 32.3402 37.5711 33.6873C35.4264 36.4054 35.3158 37.8191 35.4383 60.8976C35.542 80.3721 35.6212 82.4285 36.2708 82.553C36.7139 82.6383 37.6103 81.8466 38.6131 80.4849C40.7128 77.6328 44.351 75.7802 49.0016 75.1948C71.6703 72.3416 86.1992 49.2642 78.7354 27.9662C75.2111 17.9082 67.4893 10.1029 57.0637 6.05931C51.7847 4.01203 44.0587 2.98772 39.9623 3.79178ZM107.046 39.1692C100.16 40.1715 94.0175 45.8053 93.9871 51.147C93.9761 53.0452 95.1 55.2684 96.2552 55.6342C96.6759 55.7668 97.6747 55.5445 98.4749 55.1391C101.157 53.7807 101.206 53.6339 99.5032 52.079C97.6985 50.4304 97.572 49.4048 98.8498 46.7728C101.167 42.0012 108.962 39.0852 113.52 41.2851C117.535 43.2229 117.952 47.303 114.631 52.1731C113.095 54.4274 113.077 54.8335 114.492 55.4758C115.461 55.9163 115.841 55.8153 117.423 54.6973C120.14 52.7766 120.955 50.9747 120.787 47.2582C120.671 44.6948 120.443 43.9135 119.422 42.5793C117.251 39.742 112.364 38.3955 107.046 39.1692ZM197.634 39.8172C196.078 40.4125 194.562 41.0996 194.265 41.3445C193.578 41.9133 190.445 49.4281 189.018 53.9297C188.415 55.8341 187.693 58.9695 187.414 60.8976C186.85 64.7926 186.268 65.7127 183.071 67.7621C180.859 69.1804 179.614 69.3179 177.741 68.3521C176.371 67.6457 174.906 65.3469 175.254 64.4466C175.367 64.1516 176.324 63.653 177.379 63.3388C183.767 61.4379 186.974 56.997 184.245 53.8334C181.926 51.1452 176.073 52.4073 172.961 56.2663C171.272 58.3637 169.842 61.3517 169.829 62.8174C169.814 64.433 165.897 68.1398 164.203 68.1398C163.471 68.1398 162.622 67.8395 162.316 67.4719C161.563 66.5659 161.969 63.0125 163.274 59.1277C164.294 56.0909 164.329 56.0486 165.985 55.9124C166.908 55.8367 167.734 55.5401 167.822 55.253C168.647 52.5488 168.578 52.3137 166.961 52.3137C166.108 52.3137 165.41 52.1651 165.41 51.984C165.41 51.8029 165.897 50.0796 166.493 48.155C167.089 46.2299 167.501 44.5809 167.41 44.4899C167.319 44.3989 165.988 44.5981 164.453 44.933L161.661 45.5414L160.478 49.0372C159.646 51.4995 159.059 52.577 158.495 52.6803C156.85 52.9824 155.712 56.2703 157.252 56.2703C158.109 56.2703 158.11 56.2597 156.933 60.8159C156.004 64.414 155.759 64.8624 153.641 66.8605C151.193 69.1698 150.258 69.4854 149.584 68.2303C149.273 67.6517 149.618 66.0996 150.879 62.4054C152.799 56.7784 153.06 54.1641 151.815 53.0412C150 51.4019 147.246 52.4834 142.951 56.5239C139.449 59.8171 139.432 59.7981 141.219 54.5759L142.024 52.2222L141.04 52.4578C140.498 52.5871 139.288 52.8319 138.351 53.0016C136.831 53.2764 136.534 53.5538 135.616 55.5593C134.561 57.8607 133.221 62.4656 133.221 63.785C133.221 64.8602 129.883 67.7002 128.62 67.7002C126.497 67.7002 126.591 65.7263 129.099 57.6615C129.95 54.921 130.58 52.6113 130.497 52.5287C130.327 52.359 124.87 53.4471 124.658 53.6928C124.276 54.1376 122.641 59.5428 121.971 62.5738C121.092 66.5542 121.28 69.4902 122.523 71.1573C124.157 73.3488 126.796 72.7373 130.572 69.2928L132.552 67.486L132.933 69.9013C133.142 71.2294 133.362 72.3689 133.422 72.4335C133.481 72.4981 134.524 72.3218 135.74 72.0422L137.95 71.5336L138.217 68.084C138.364 66.1866 138.783 64.0571 139.149 63.3515C140.129 61.4621 144.808 56.7099 145.689 56.7099C146.726 56.7099 146.659 57.2835 145.095 61.7847C142.837 68.2818 142.99 71.3384 145.62 72.2603C147.532 72.9306 149.822 72.1741 152.827 69.8784C154.394 68.6805 155.759 67.7002 155.859 67.7002C155.959 67.7002 156.16 68.2989 156.307 69.0304C156.453 69.7619 157.064 70.8499 157.664 71.4483C159.743 73.5198 163.154 72.6569 167.303 69.0098C168.465 67.9881 169.458 67.2262 169.507 67.3164C169.557 67.4065 170.018 68.2603 170.53 69.2133C171.68 71.3529 173.796 72.5359 176.47 72.5359C179.355 72.5359 181.111 71.8278 184.23 69.4072L186.957 67.2913L187.456 68.8001C187.731 69.6301 188.553 70.81 189.284 71.4224C191.786 73.522 195.577 72.6898 200.133 69.0401C202.034 67.5182 202.448 66.94 202.448 65.8151V64.4444L200.795 66.0068C195.98 70.5555 193.179 70.0208 192.84 64.4879L192.671 61.7654L195.34 58.4682C196.806 56.6548 198.71 53.7864 199.57 52.0938C201.977 47.3532 202.769 41.4329 201.236 39.6383L200.464 38.7353L197.634 39.8172ZM198.591 42.3125C197.255 43.9844 193.194 56.8619 193.809 57.4743C194.17 57.8347 196.809 53.8906 198.366 50.6607C200.145 46.9715 200.923 41.763 199.696 41.763C199.329 41.763 198.831 42.0104 198.591 42.3125ZM126.22 45.349C125.663 46.5587 125.275 47.6046 125.356 47.6736C126.028 48.2389 127.636 48.7968 128.596 48.7968C130.189 48.7968 132.339 46.6001 132.339 44.9722C132.339 43.7799 132.254 43.7258 130.624 43.8811C129.681 43.9707 128.532 43.8428 128.071 43.5966C127.338 43.2062 127.104 43.4287 126.22 45.349ZM110.954 44.6904C106.696 46.924 105.41 49.5929 103.888 59.3475C102.735 66.741 100.43 70.7774 97.3585 70.7774C95.2027 70.7774 94.6617 69.8908 94.7851 66.559C94.9077 63.2553 94.5885 63.0918 91.5178 64.8858C89.3131 66.1743 88.7549 67.4785 89.6385 69.2767C90.7841 71.6066 92.345 72.3161 96.3263 72.3161C100.568 72.3161 102.812 71.4202 105.843 68.5161C108.619 65.8564 109.694 63.1092 110.984 55.3791C112.099 48.7005 112.683 46.8422 114.016 45.7388C114.547 45.3001 114.594 45.0205 114.212 44.562C113.567 43.7874 112.602 43.8251 110.954 44.6904ZM177.068 55.6086C176.043 56.6914 175.464 57.87 175.104 59.5998C174.822 60.9503 174.7 62.1619 174.831 62.2924C175.389 62.849 177.599 61.8059 179.159 60.2501C180.538 58.8767 180.843 58.2591 180.843 56.8496C180.843 53.7437 179.309 53.2395 177.068 55.6086Z" fill="black"/>
<path d="M94.5585 79.8224H93.6811C93.6473 79.6413 93.5845 79.4821 93.4926 79.3444C93.4007 79.2067 93.2882 79.0899 93.155 78.9939C93.0219 78.8979 92.8729 78.8254 92.708 78.7765C92.5448 78.7276 92.3714 78.7031 92.1876 78.7031C91.8558 78.7031 91.5586 78.7837 91.296 78.945C91.0355 79.1062 90.8291 79.3425 90.6773 79.6541C90.5273 79.9655 90.4523 80.346 90.4523 80.7951C90.4523 81.2479 90.5273 81.6301 90.6773 81.9415C90.8291 82.2531 91.0364 82.4886 91.2988 82.648C91.5614 82.8074 91.8567 82.8871 92.1847 82.8871C92.3667 82.8871 92.5392 82.8634 92.7022 82.8163C92.8672 82.7674 93.0163 82.696 93.1495 82.6017C93.2826 82.5075 93.395 82.3926 93.4869 82.2567C93.5807 82.1191 93.6454 81.9615 93.6811 81.7841L94.5585 81.7867C94.5117 82.0601 94.4207 82.312 94.2856 82.542C94.1525 82.7702 93.9811 82.9676 93.771 83.1342C93.5629 83.2991 93.3247 83.4268 93.0567 83.5173C92.7885 83.6079 92.496 83.6531 92.1791 83.6531C91.6804 83.6531 91.236 83.539 90.846 83.3108C90.456 83.0808 90.1485 82.752 89.9235 82.3246C89.7004 81.8972 89.5889 81.3873 89.5889 80.7951C89.5889 80.2009 89.7013 79.6912 89.9263 79.2656C90.1513 78.8382 90.4588 78.5103 90.8489 78.282C91.2389 78.052 91.6823 77.9371 92.1791 77.9371C92.4847 77.9371 92.7698 77.9797 93.0341 78.0648C93.3003 78.148 93.5394 78.2712 93.7514 78.4342C93.9632 78.5954 94.1386 78.7928 94.2773 79.0265C94.416 79.2584 94.5098 79.5236 94.5585 79.8224Z" fill="black"/>
<path d="M97.3507 83.6613C96.9457 83.6613 96.5923 83.5716 96.2904 83.3924C95.9885 83.213 95.7542 82.9622 95.5873 82.6397C95.4204 82.3174 95.3369 81.9407 95.3369 81.5096C95.3369 81.0767 95.4204 80.6982 95.5873 80.374C95.7542 80.0498 95.9885 79.798 96.2904 79.6187C96.5923 79.4395 96.9457 79.3498 97.3507 79.3498C97.7556 79.3498 98.109 79.4395 98.411 79.6187C98.7129 79.798 98.9473 80.0498 99.1142 80.374C99.281 80.6982 99.3644 81.0767 99.3644 81.5096C99.3644 81.9407 99.281 82.3174 99.1142 82.6397C98.9473 82.9622 98.7129 83.213 98.411 83.3924C98.109 83.5716 97.7556 83.6613 97.3507 83.6613ZM97.3534 82.9794C97.616 82.9794 97.8335 82.9123 98.006 82.7783C98.1785 82.6443 98.306 82.466 98.3885 82.2431C98.4729 82.0203 98.515 81.7749 98.515 81.5069C98.515 81.2407 98.4729 80.9962 98.3885 80.7734C98.306 80.5488 98.1785 80.3686 98.006 80.2326C97.8335 80.0969 97.616 80.0289 97.3534 80.0289C97.0891 80.0289 96.8697 80.0969 96.6953 80.2326C96.5228 80.3686 96.3944 80.5488 96.31 80.7734C96.2275 80.9962 96.1863 81.2407 96.1863 81.5069C96.1863 81.7749 96.2275 82.0203 96.31 82.2431C96.3944 82.466 96.5228 82.6443 96.6953 82.7783C96.8697 82.9123 97.0891 82.9794 97.3534 82.9794Z" fill="black"/>
<path d="M101.144 81.0993V83.577H100.303V79.4041H101.11V80.0832H101.163C101.263 79.8623 101.418 79.6849 101.63 79.5507C101.844 79.4167 102.113 79.3498 102.437 79.3498C102.732 79.3498 102.99 79.4095 103.211 79.529C103.432 79.6467 103.604 79.8224 103.726 80.0561C103.847 80.2897 103.908 80.5786 103.908 80.9228V83.577H103.067V81.0205C103.067 80.7182 102.986 80.4817 102.823 80.3115C102.66 80.1394 102.436 80.0534 102.151 80.0534C101.956 80.0534 101.782 80.0941 101.63 80.1757C101.48 80.2571 101.361 80.3766 101.273 80.5343C101.187 80.69 101.144 80.8784 101.144 81.0993Z" fill="black"/>
<path d="M105.877 81.0993V83.577H105.037V79.4041H105.844V80.0832H105.897C105.997 79.8623 106.152 79.6849 106.364 79.5507C106.578 79.4167 106.847 79.3498 107.171 79.3498C107.466 79.3498 107.723 79.4095 107.945 79.529C108.166 79.6467 108.338 79.8224 108.459 80.0561C108.581 80.2897 108.642 80.5786 108.642 80.9228V83.577H107.801V81.0205C107.801 80.7182 107.72 80.4817 107.557 80.3115C107.393 80.1394 107.169 80.0534 106.884 80.0534C106.689 80.0534 106.516 80.0941 106.364 80.1757C106.214 80.2571 106.095 80.3766 106.007 80.5343C105.921 80.69 105.877 80.8784 105.877 81.0993Z" fill="black"/>
<path d="M111.632 83.6613C111.206 83.6613 110.839 83.5735 110.532 83.3978C110.226 83.2202 109.99 82.9712 109.823 82.6506C109.658 82.3283 109.576 81.9506 109.576 81.5178C109.576 81.0902 109.658 80.7136 109.823 80.3876C109.99 80.0615 110.223 79.8071 110.521 79.6241C110.821 79.4412 111.171 79.3498 111.573 79.3498C111.816 79.3498 112.052 79.3887 112.281 79.4666C112.51 79.5444 112.715 79.6667 112.897 79.8333C113.079 80 113.223 80.2163 113.328 80.4826C113.433 80.7471 113.485 81.0685 113.485 81.4471V81.735H110.051V81.1265H112.661C112.661 80.9128 112.616 80.7236 112.526 80.5588C112.436 80.392 112.309 80.2608 112.146 80.1648C111.985 80.0688 111.796 80.0208 111.578 80.0208C111.342 80.0208 111.136 80.0769 110.959 80.1892C110.785 80.2997 110.65 80.4446 110.554 80.6239C110.461 80.8014 110.414 80.9942 110.414 81.2025V81.6781C110.414 81.9569 110.464 82.1943 110.566 82.3898C110.669 82.5854 110.812 82.7348 110.996 82.838C111.18 82.9396 111.395 82.9902 111.64 82.9902C111.799 82.9902 111.945 82.9685 112.076 82.9251C112.207 82.8797 112.321 82.8128 112.416 82.724C112.512 82.6352 112.585 82.5257 112.636 82.3952L113.432 82.5338C113.368 82.7602 113.254 82.9585 113.088 83.1288C112.925 83.2973 112.72 83.4285 112.473 83.5227C112.227 83.6151 111.947 83.6613 111.632 83.6613Z" fill="black"/>
<path d="M116.238 83.6613C115.82 83.6613 115.46 83.5698 115.158 83.3868C114.858 83.2022 114.627 82.9477 114.466 82.6234C114.305 82.2992 114.224 81.928 114.224 81.5096C114.224 81.0858 114.307 80.7117 114.472 80.3876C114.637 80.0615 114.869 79.8071 115.169 79.6241C115.469 79.4412 115.822 79.3498 116.229 79.3498C116.558 79.3498 116.85 79.4086 117.107 79.5264C117.364 79.6423 117.571 79.8052 117.728 80.0154C117.888 80.2254 117.983 80.4709 118.013 80.7516H117.194C117.149 80.556 117.046 80.3876 116.885 80.2463C116.725 80.1049 116.512 80.0343 116.243 80.0343C116.009 80.0343 115.804 80.0941 115.628 80.2137C115.453 80.3314 115.317 80.4999 115.22 80.719C115.122 80.9364 115.073 81.1936 115.073 81.4906C115.073 81.7949 115.121 82.0575 115.217 82.2784C115.313 82.4994 115.447 82.6706 115.622 82.7919C115.798 82.9133 116.005 82.9739 116.243 82.9739C116.403 82.9739 116.547 82.9459 116.677 82.8897C116.808 82.8317 116.918 82.7494 117.006 82.6425C117.096 82.5357 117.158 82.4071 117.194 82.2567H118.013C117.983 82.5266 117.892 82.7674 117.74 82.9794C117.588 83.1913 117.384 83.3579 117.129 83.4793C116.876 83.6007 116.579 83.6613 116.238 83.6613Z" fill="black"/>
<path d="M120.928 79.4041V80.0561H118.568V79.4041H120.928ZM119.201 78.4043H120.042V82.3518C120.042 82.5094 120.066 82.628 120.115 82.7077C120.164 82.7856 120.227 82.839 120.304 82.868C120.382 82.8951 120.468 82.9088 120.56 82.9088C120.627 82.9088 120.686 82.9042 120.737 82.8951C120.787 82.886 120.827 82.8788 120.855 82.8734L121.007 83.5444C120.958 83.5625 120.889 83.5807 120.799 83.5988C120.709 83.6187 120.596 83.6296 120.461 83.6313C120.24 83.635 120.034 83.597 119.843 83.5173C119.651 83.4376 119.497 83.3144 119.378 83.1479C119.26 82.9811 119.201 82.772 119.201 82.5203V78.4043Z" fill="black"/>
<path d="M124.022 83.577V78.0131H124.863V80.0806H124.914C124.962 79.9937 125.033 79.8932 125.125 79.779C125.216 79.6649 125.344 79.5653 125.507 79.4801C125.67 79.3932 125.886 79.3498 126.154 79.3498C126.503 79.3498 126.814 79.4349 127.088 79.6052C127.361 79.7754 127.576 80.0208 127.732 80.3414C127.889 80.662 127.968 81.0477 127.968 81.4987C127.968 81.9498 127.89 82.3364 127.734 82.6588C127.579 82.9794 127.365 83.2265 127.093 83.4005C126.821 83.5725 126.511 83.6585 126.162 83.6585C125.9 83.6585 125.685 83.6161 125.518 83.531C125.353 83.4458 125.224 83.3462 125.13 83.232C125.036 83.1179 124.964 83.0165 124.914 82.9277H124.843V83.577H124.022ZM124.846 81.4906C124.846 81.784 124.89 82.0412 124.978 82.2621C125.066 82.4831 125.194 82.656 125.361 82.7811C125.528 82.9042 125.732 82.9657 125.974 82.9657C126.225 82.9657 126.435 82.9014 126.604 82.7729C126.773 82.6425 126.9 82.466 126.986 82.2432C127.074 82.0204 127.119 81.7695 127.119 81.4906C127.119 81.2153 127.075 80.968 126.989 80.7489C126.905 80.5297 126.777 80.3568 126.607 80.23C126.438 80.1032 126.227 80.0398 125.974 80.0398C125.73 80.0398 125.524 80.1005 125.355 80.2218C125.188 80.3432 125.062 80.5125 124.975 80.7299C124.889 80.9473 124.846 81.2008 124.846 81.4906Z" fill="black"/>
<path d="M131.649 81.8464V79.4041H132.492V83.5771H131.666V82.8545H131.621C131.521 83.0771 131.362 83.2628 131.142 83.4113C130.925 83.5581 130.654 83.6314 130.33 83.6314C130.052 83.6314 129.807 83.5725 129.593 83.4548C129.381 83.3353 129.214 83.1587 129.092 82.9251C128.972 82.6914 128.912 82.4026 128.912 82.0584V79.4041H129.753V81.9606C129.753 82.2449 129.835 82.4714 129.998 82.6398C130.161 82.8083 130.373 82.8925 130.633 82.8925C130.791 82.8925 130.947 82.8545 131.103 82.7783C131.26 82.7023 131.391 82.5872 131.494 82.4334C131.599 82.2794 131.65 82.0838 131.649 81.8464Z" fill="black"/>
<path d="M136.86 80.4229L136.097 80.5533C136.066 80.4591 136.015 80.3694 135.946 80.2843C135.878 80.1992 135.786 80.1295 135.67 80.0752C135.554 80.0208 135.408 79.9937 135.234 79.9937C134.996 79.9937 134.797 80.0452 134.638 80.1485C134.478 80.25 134.399 80.3812 134.399 80.5425C134.399 80.6819 134.452 80.7942 134.559 80.8793C134.666 80.9645 134.838 81.0342 135.076 81.0885L135.763 81.2407C136.16 81.3293 136.456 81.4661 136.652 81.6509C136.846 81.8356 136.944 82.0755 136.944 82.3708C136.944 82.6208 136.869 82.8436 136.719 83.0391C136.571 83.233 136.364 83.3851 136.097 83.4956C135.833 83.6061 135.527 83.6613 135.178 83.6613C134.694 83.6613 134.299 83.5616 133.994 83.3624C133.688 83.1614 133.501 82.8762 133.431 82.5066L134.244 82.3871C134.295 82.5917 134.399 82.7466 134.556 82.8517C134.714 82.9549 134.919 83.0065 135.172 83.0065C135.448 83.0065 135.668 82.9513 135.833 82.8408C135.998 82.7285 136.081 82.5917 136.081 82.4306C136.081 82.3002 136.03 82.1906 135.929 82.1018C135.829 82.0132 135.677 81.9461 135.47 81.9009L134.739 81.7459C134.336 81.6572 134.038 81.5159 133.845 81.3221C133.653 81.1284 133.558 80.8829 133.558 80.5859C133.558 80.3396 133.629 80.124 133.772 79.9392C133.914 79.7546 134.111 79.6106 134.362 79.5073C134.613 79.4023 134.901 79.3498 135.226 79.3498C135.693 79.3498 136.06 79.4475 136.328 79.6432C136.596 79.8369 136.773 80.0969 136.86 80.4229Z" fill="black"/>
<path d="M137.869 83.577V79.4041H138.71V83.577H137.869ZM138.294 78.7602C138.147 78.7602 138.022 78.7131 137.917 78.619C137.813 78.523 137.762 78.4088 137.762 78.2766C137.762 78.1426 137.813 78.0285 137.917 77.9343C138.022 77.8383 138.147 77.7903 138.294 77.7903C138.44 77.7903 138.565 77.8383 138.668 77.9343C138.773 78.0285 138.825 78.1426 138.825 78.2766C138.825 78.4088 138.773 78.523 138.668 78.619C138.565 78.7131 138.44 78.7602 138.294 78.7602Z" fill="black"/>
<path d="M140.682 81.0993V83.577H139.841V79.4041H140.648V80.0832H140.701C140.801 79.8623 140.956 79.6849 141.168 79.5507C141.382 79.4167 141.651 79.3498 141.976 79.3498C142.27 79.3498 142.528 79.4095 142.749 79.529C142.97 79.6467 143.142 79.8224 143.264 80.0561C143.386 80.2897 143.446 80.5786 143.446 80.9228V83.577H142.606V81.0205C142.606 80.7182 142.524 80.4817 142.361 80.3115C142.198 80.1394 141.974 80.0534 141.689 80.0534C141.494 80.0534 141.32 80.0941 141.168 80.1757C141.018 80.2571 140.899 80.3766 140.811 80.5343C140.725 80.69 140.682 80.8784 140.682 81.0993Z" fill="black"/>
<path d="M146.436 83.6613C146.011 83.6613 145.644 83.5735 145.337 83.3978C145.031 83.2202 144.795 82.9712 144.628 82.6506C144.463 82.3283 144.38 81.9506 144.38 81.5178C144.38 81.0902 144.463 80.7136 144.628 80.3876C144.795 80.0615 145.027 79.8071 145.325 79.6241C145.625 79.4412 145.976 79.3498 146.377 79.3498C146.621 79.3498 146.857 79.3887 147.086 79.4666C147.315 79.5444 147.519 79.6667 147.701 79.8333C147.883 80 148.027 80.2163 148.131 80.4826C148.237 80.7471 148.29 81.0685 148.29 81.4471V81.735H144.856V81.1265H147.465C147.465 80.9128 147.421 80.7236 147.33 80.5588C147.241 80.392 147.114 80.2608 146.951 80.1648C146.79 80.0688 146.6 80.0208 146.383 80.0208C146.147 80.0208 145.94 80.0769 145.764 80.1892C145.59 80.2997 145.455 80.4446 145.359 80.6239C145.265 80.8014 145.218 80.9942 145.218 81.2025V81.6781C145.218 81.9569 145.269 82.1943 145.37 82.3898C145.473 82.5854 145.617 82.7348 145.801 82.838C145.984 82.9396 146.199 82.9902 146.445 82.9902C146.604 82.9902 146.749 82.9685 146.881 82.9251C147.012 82.8797 147.125 82.8128 147.221 82.724C147.317 82.6352 147.39 82.5257 147.44 82.3952L148.236 82.5338C148.173 82.7602 148.058 82.9585 147.894 83.1288C147.729 83.2973 147.525 83.4285 147.277 83.5227C147.032 83.6151 146.751 83.6613 146.436 83.6613Z" fill="black"/>
<path d="M152.459 80.4229L151.698 80.5533C151.665 80.4591 151.615 80.3694 151.545 80.2843C151.477 80.1992 151.386 80.1295 151.269 80.0752C151.153 80.0208 151.008 79.9937 150.833 79.9937C150.595 79.9937 150.397 80.0452 150.237 80.1485C150.079 80.25 149.998 80.3812 149.998 80.5425C149.998 80.6819 150.052 80.7942 150.159 80.8793C150.265 80.9645 150.438 81.0342 150.676 81.0885L151.363 81.2407C151.761 81.3293 152.056 81.4661 152.251 81.6509C152.446 81.8356 152.545 82.0755 152.545 82.3708C152.545 82.6208 152.468 82.8436 152.319 83.0391C152.17 83.233 151.963 83.3851 151.698 83.4956C151.433 83.6061 151.127 83.6613 150.777 83.6613C150.294 83.6613 149.9 83.5616 149.593 83.3624C149.288 83.1614 149.1 82.8762 149.031 82.5066L149.844 82.3871C149.894 82.5917 149.998 82.7466 150.157 82.8517C150.314 82.9549 150.519 83.0065 150.771 83.0065C151.047 83.0065 151.268 82.9513 151.433 82.8408C151.598 82.7285 151.68 82.5917 151.68 82.4306C151.68 82.3002 151.63 82.1906 151.529 82.1018C151.429 82.0132 151.276 81.9461 151.069 81.9009L150.339 81.7459C149.936 81.6572 149.637 81.5159 149.445 81.3221C149.254 81.1284 149.157 80.8829 149.157 80.5859C149.157 80.3396 149.229 80.124 149.371 79.9392C149.514 79.7546 149.71 79.6106 149.961 79.5073C150.214 79.4023 150.501 79.3498 150.826 79.3498C151.293 79.3498 151.659 79.4475 151.928 79.6432C152.197 79.8369 152.373 80.0969 152.459 80.4229Z" fill="black"/>
<path d="M156.706 80.4229L155.944 80.5533C155.912 80.4591 155.861 80.3694 155.792 80.2843C155.724 80.1992 155.633 80.1295 155.516 80.0752C155.4 80.0208 155.254 79.9937 155.08 79.9937C154.842 79.9937 154.644 80.0452 154.484 80.1485C154.325 80.25 154.245 80.3812 154.245 80.5425C154.245 80.6819 154.299 80.7942 154.406 80.8793C154.512 80.9645 154.685 81.0342 154.923 81.0885L155.61 81.2407C156.006 81.3293 156.302 81.4661 156.498 81.6509C156.693 81.8356 156.79 82.0755 156.79 82.3708C156.79 82.6208 156.715 82.8436 156.565 83.0391C156.417 83.233 156.21 83.3851 155.944 83.4956C155.68 83.6061 155.373 83.6613 155.024 83.6613C154.541 83.6613 154.146 83.5616 153.839 83.3624C153.534 83.1614 153.346 82.8762 153.277 82.5066L154.09 82.3871C154.14 82.5917 154.245 82.7466 154.403 82.8517C154.56 82.9549 154.766 83.0065 155.018 83.0065C155.294 83.0065 155.514 82.9513 155.68 82.8408C155.844 82.7285 155.927 82.5917 155.927 82.4306C155.927 82.3002 155.877 82.1906 155.775 82.1018C155.676 82.0132 155.523 81.9461 155.316 81.9009L154.585 81.7459C154.183 81.6572 153.884 81.5159 153.691 81.3221C153.5 81.1284 153.404 80.8829 153.404 80.5859C153.404 80.3396 153.475 80.124 153.618 79.9392C153.76 79.7546 153.957 79.6106 154.208 79.5073C154.46 79.4023 154.748 79.3498 155.072 79.3498C155.539 79.3498 155.906 79.4475 156.175 79.6432C156.443 79.8369 156.619 80.0969 156.706 80.4229Z" fill="black"/>
<path d="M161.827 79.4041V80.0561H159.468V79.4041H161.827ZM160.101 78.4043H160.942V82.3518C160.942 82.5094 160.965 82.628 161.015 82.7077C161.064 82.7856 161.127 82.839 161.203 82.868C161.282 82.8951 161.368 82.9088 161.459 82.9088C161.526 82.9088 161.586 82.9042 161.636 82.8951C161.687 82.886 161.726 82.8788 161.755 82.8734L161.906 83.5444C161.858 83.5625 161.789 83.5807 161.698 83.5988C161.608 83.6187 161.495 83.6296 161.36 83.6313C161.14 83.635 160.933 83.597 160.742 83.5173C160.55 83.4376 160.396 83.3144 160.278 83.1479C160.16 82.9811 160.101 82.772 160.101 82.5203V78.4043Z" fill="black"/>
<path d="M164.53 83.6613C164.125 83.6613 163.773 83.5716 163.471 83.3924C163.168 83.213 162.935 82.9622 162.768 82.6397C162.6 82.3174 162.517 81.9407 162.517 81.5096C162.517 81.0767 162.6 80.6982 162.768 80.374C162.935 80.0498 163.168 79.798 163.471 79.6187C163.773 79.4395 164.125 79.3498 164.53 79.3498C164.935 79.3498 165.289 79.4395 165.592 79.6187C165.892 79.798 166.127 80.0498 166.295 80.374C166.46 80.6982 166.544 81.0767 166.544 81.5096C166.544 81.9407 166.46 82.3174 166.295 82.6397C166.127 82.9622 165.892 83.213 165.592 83.3924C165.289 83.5716 164.935 83.6613 164.53 83.6613ZM164.533 82.9794C164.796 82.9794 165.013 82.9123 165.186 82.7783C165.358 82.6443 165.486 82.466 165.568 82.2431C165.653 82.0203 165.696 81.7749 165.696 81.5069C165.696 81.2407 165.653 80.9962 165.568 80.7734C165.486 80.5488 165.358 80.3686 165.186 80.2326C165.013 80.0969 164.796 80.0289 164.533 80.0289C164.269 80.0289 164.05 80.0969 163.876 80.2326C163.703 80.3686 163.575 80.5488 163.49 80.7734C163.408 80.9962 163.366 81.2407 163.366 81.5069C163.366 81.7749 163.408 82.0203 163.49 82.2431C163.575 82.466 163.703 82.6443 163.876 82.7783C164.05 82.9123 164.269 82.9794 164.533 82.9794Z" fill="black"/>
<path d="M171.596 79.4041V80.0561H169.236V79.4041H171.596ZM169.868 78.4043H170.709V82.3518C170.709 82.5094 170.734 82.628 170.783 82.7077C170.831 82.7856 170.894 82.839 170.971 82.868C171.05 82.8951 171.135 82.9088 171.228 82.9088C171.295 82.9088 171.354 82.9042 171.404 82.8951C171.455 82.886 171.495 82.8788 171.523 82.8734L171.674 83.5444C171.625 83.5625 171.556 83.5807 171.467 83.5988C171.376 83.6187 171.264 83.6296 171.129 83.6313C170.908 83.635 170.701 83.597 170.51 83.5173C170.319 83.4376 170.163 83.3144 170.046 83.1479C169.927 82.9811 169.868 82.772 169.868 82.5203V78.4043Z" fill="black"/>
<path d="M173.46 81.0993V83.577H172.619V78.0131H173.448V80.0832H173.501C173.603 79.8587 173.758 79.6803 173.967 79.5481C174.173 79.4158 174.446 79.3498 174.781 79.3498C175.078 79.3498 175.336 79.4087 175.558 79.5264C175.781 79.6441 175.954 79.8198 176.076 80.0534C176.199 80.2852 176.261 80.5751 176.261 80.9228V83.577H175.42V81.0205C175.42 80.7145 175.339 80.4772 175.176 80.3088C175.012 80.1386 174.786 80.0534 174.495 80.0534C174.295 80.0534 174.118 80.0941 173.961 80.1757C173.805 80.2572 173.682 80.3766 173.592 80.5343C173.504 80.69 173.46 80.8785 173.46 81.0993Z" fill="black"/>
<path d="M179.244 83.6613C178.819 83.6613 178.453 83.5735 178.145 83.3978C177.84 83.2202 177.603 82.9712 177.436 82.6506C177.272 82.3283 177.189 81.9506 177.189 81.5178C177.189 81.0902 177.272 80.7136 177.436 80.3876C177.603 80.0615 177.835 79.8071 178.133 79.6241C178.434 79.4412 178.785 79.3498 179.186 79.3498C179.429 79.3498 179.666 79.3887 179.895 79.4666C180.123 79.5444 180.329 79.6667 180.511 79.8333C180.693 80 180.835 80.2163 180.941 80.4826C181.045 80.7471 181.098 81.0685 181.098 81.4471V81.735H177.664V81.1265H180.275C180.275 80.9128 180.229 80.7236 180.14 80.5588C180.049 80.392 179.922 80.2608 179.759 80.1648C179.598 80.0688 179.409 80.0208 179.191 80.0208C178.955 80.0208 178.748 80.0769 178.572 80.1892C178.399 80.2997 178.264 80.4446 178.167 80.6239C178.075 80.8014 178.028 80.9942 178.028 81.2025V81.6781C178.028 81.9569 178.077 82.1943 178.179 82.3898C178.281 82.5854 178.425 82.7348 178.609 82.838C178.792 82.9396 179.008 82.9902 179.253 82.9902C179.413 82.9902 179.558 82.9685 179.689 82.9251C179.821 82.8797 179.934 82.8128 180.03 82.724C180.125 82.6352 180.198 82.5257 180.248 82.3952L181.045 82.5338C180.981 82.7602 180.866 82.9585 180.702 83.1288C180.539 83.2973 180.333 83.4285 180.085 83.5227C179.84 83.6151 179.56 83.6613 179.244 83.6613Z" fill="black"/>
<path d="M185.064 83.5771L183.793 79.4041H184.662L185.509 82.4686H185.55L186.4 79.4041H187.269L188.113 82.4551H188.155L188.996 79.4041H189.865L188.597 83.5771H187.738L186.861 80.5642H186.796L185.918 83.5771H185.064Z" fill="black"/>
<path d="M192.351 83.6613C191.946 83.6613 191.592 83.5716 191.29 83.3924C190.989 83.213 190.754 82.9622 190.587 82.6397C190.421 82.3174 190.337 81.9407 190.337 81.5096C190.337 81.0767 190.421 80.6982 190.587 80.374C190.754 80.0498 190.989 79.798 191.29 79.6187C191.592 79.4395 191.946 79.3498 192.351 79.3498C192.756 79.3498 193.11 79.4395 193.411 79.6187C193.713 79.798 193.948 80.0498 194.114 80.374C194.281 80.6982 194.365 81.0767 194.365 81.5096C194.365 81.9407 194.281 82.3174 194.114 82.6397C193.948 82.9622 193.713 83.213 193.411 83.3924C193.11 83.5716 192.756 83.6613 192.351 83.6613ZM192.354 82.9794C192.617 82.9794 192.834 82.9123 193.006 82.7783C193.179 82.6443 193.307 82.466 193.389 82.2431C193.472 82.0203 193.515 81.7749 193.515 81.5069C193.515 81.2407 193.472 80.9962 193.389 80.7734C193.307 80.5488 193.179 80.3686 193.006 80.2326C192.834 80.0969 192.617 80.0289 192.354 80.0289C192.09 80.0289 191.87 80.0969 191.695 80.2326C191.523 80.3686 191.394 80.5488 191.311 80.7734C191.228 80.9962 191.186 81.2407 191.186 81.5069C191.186 81.7749 191.228 82.0203 191.311 82.2431C191.394 82.466 191.523 82.6443 191.695 82.7783C191.87 82.9123 192.09 82.9794 192.354 82.9794Z" fill="black"/>
<path d="M195.303 83.577V79.4041H196.116V80.0669H196.161C196.239 79.8424 196.379 79.6658 196.577 79.5372C196.778 79.4068 197.005 79.3416 197.258 79.3416C197.311 79.3416 197.372 79.3435 197.444 79.347C197.516 79.3507 197.573 79.3552 197.614 79.3607V80.1377C197.581 80.1286 197.522 80.1186 197.435 80.1077C197.349 80.0951 197.262 80.0887 197.177 80.0887C196.977 80.0887 196.8 80.1295 196.644 80.2109C196.492 80.2906 196.37 80.402 196.279 80.5451C196.189 80.6865 196.144 80.8476 196.144 81.0288V83.577H195.303Z" fill="black"/>
<path d="M199.184 78.0131V83.577H198.343V78.0131H199.184Z" fill="black"/>
<path d="M201.933 83.6585C201.583 83.6585 201.272 83.5725 200.999 83.4005C200.726 83.2265 200.513 82.9794 200.358 82.6588C200.204 82.3364 200.127 81.9498 200.127 81.4987C200.127 81.0477 200.205 80.662 200.361 80.3414C200.518 80.0208 200.734 79.7754 201.007 79.6052C201.281 79.4349 201.591 79.3498 201.939 79.3498C202.206 79.3498 202.422 79.3932 202.584 79.4801C202.75 79.5653 202.878 79.6649 202.968 79.779C203.06 79.8932 203.13 79.9937 203.182 80.0806H203.232V78.0131H204.073V83.577H203.251V82.9277H203.182C203.13 83.0165 203.057 83.1179 202.962 83.232C202.868 83.3462 202.739 83.4458 202.574 83.531C202.408 83.6161 202.196 83.6585 201.933 83.6585ZM202.118 82.9657C202.36 82.9657 202.564 82.9042 202.731 82.7811C202.9 82.656 203.028 82.4831 203.114 82.2621C203.202 82.0412 203.246 81.784 203.246 81.4906C203.246 81.2008 203.202 80.9473 203.116 80.7299C203.031 80.5125 202.904 80.3432 202.737 80.2218C202.57 80.1005 202.364 80.0398 202.118 80.0398C201.865 80.0398 201.654 80.1032 201.485 80.23C201.316 80.3568 201.189 80.5297 201.104 80.7489C201.018 80.968 200.976 81.2153 200.976 81.4906C200.976 81.7695 201.02 82.0204 201.105 82.2432C201.192 82.466 201.319 82.6425 201.488 82.7729C201.658 82.9014 201.868 82.9657 202.118 82.9657Z" fill="black"/>
<path fill-rule="evenodd" clip-rule="evenodd" d="M67.0801 0.0541213C67.1997 0.102331 67.2636 0.165943 67.3157 0.217802C67.3957 0.297406 67.4478 0.349315 67.6312 0.275313C67.9346 0.15354 67.6864 0.0541213 67.0801 0.0541213ZM37.5725 4.24768L37.5701 4.24813L36.6552 4.42878C33.4977 5.05304 27.5891 7.80809 24.1304 10.269C19.9181 13.2659 14.6802 19.0661 12.5438 23.0996C9.75138 28.3723 8.87612 32.0879 8.87744 38.6615C8.8792 48.715 11.9856 56.9838 18.2351 63.5717C19.4636 64.8669 20.6382 65.9263 20.8455 65.9263C21.0527 65.9263 21.2255 59.3485 21.229 51.3092C21.236 34.894 21.4521 33.1799 24.1564 28.0492C30.125 16.7243 46.2744 12.6346 57.1907 19.6833C62.6359 23.199 66.4262 28.7337 67.7843 35.1533C70.2442 46.7821 62.5032 59.1804 50.9007 62.1931C47.3278 63.1211 45.1747 63.0544 44.6076 61.9988C44.0521 60.9636 44.0088 51.0054 44.5561 50.1438C44.7713 49.8048 46.3056 48.8156 47.9667 47.9457C51.9202 45.8738 53.8519 43.2045 53.8519 39.8128C53.8519 34.1009 48.617 29.573 43.2042 30.6029C41.0382 31.0153 38.6333 32.3248 37.5711 33.6719C35.4264 36.39 35.3158 37.8038 35.4383 60.8822C35.542 80.3567 35.6212 82.4131 36.2708 82.5376C36.7139 82.6229 37.6103 81.8312 38.6131 80.4696C40.7128 77.6174 44.351 75.7649 49.0016 75.1794C71.6703 72.3262 86.1992 49.2488 78.7354 27.9508C75.2111 17.8928 67.4893 10.0875 57.0637 6.04393C51.7847 3.99665 44.0587 2.97234 39.9623 3.7764C39.5872 3.84983 38.6121 4.04237 37.5725 4.24768Z" fill="#E7002D"/>
</svg>
