<svg width="25" height="24" viewBox="0 0 25 24" fill="none" xmlns="http://www.w3.org/2000/svg">
<path d="M13.75 9.75C13.75 9.55109 13.671 9.36032 13.5303 9.21967C13.3897 9.07902 13.1989 9 13 9H7C6.80109 9 6.61032 9.07902 6.46967 9.21967C6.32902 9.36032 6.25 9.55109 6.25 9.75C6.25 9.94891 6.32902 10.1397 6.46967 10.2803C6.61032 10.421 6.80109 10.5 7 10.5H13C13.1989 10.5 13.3897 10.421 13.5303 10.2803C13.671 10.1397 13.75 9.94891 13.75 9.75ZM12.75 12.75C12.75 12.5511 12.671 12.3603 12.5303 12.2197C12.3897 12.079 12.1989 12 12 12H7C6.80109 12 6.61032 12.079 6.46967 12.2197C6.32902 12.3603 6.25 12.5511 6.25 12.75C6.25 12.9489 6.32902 13.1397 6.46967 13.2803C6.61032 13.421 6.80109 13.5 7 13.5H12C12.1989 13.5 12.3897 13.421 12.5303 13.2803C12.671 13.1397 12.75 12.9489 12.75 12.75ZM13 15C13.1989 15 13.3897 15.079 13.5303 15.2197C13.671 15.3603 13.75 15.5511 13.75 15.75C13.75 15.9489 13.671 16.1397 13.5303 16.2803C13.3897 16.421 13.1989 16.5 13 16.5H7C6.80109 16.5 6.61032 16.421 6.46967 16.2803C6.32902 16.1397 6.25 15.9489 6.25 15.75C6.25 15.5511 6.32902 15.3603 6.46967 15.2197C6.61032 15.079 6.80109 15 7 15H13Z" fill="#2C1D10" fill-opacity="0.75"/>
<path fill-rule="evenodd" clip-rule="evenodd" d="M6.25 21.75H19.25C19.9793 21.75 20.6788 21.4603 21.1945 20.9445C21.7103 20.4288 22 19.7293 22 19V13.5C22 13.3011 21.921 13.1103 21.7803 12.9697C21.6397 12.829 21.4489 12.75 21.25 12.75H18V4.943C18 3.52 16.391 2.692 15.233 3.519L15.058 3.644C14.6748 3.91602 14.2163 4.06182 13.7464 4.06111C13.2764 4.06039 12.8184 3.91319 12.436 3.64C11.7976 3.18567 11.0335 2.94153 10.25 2.94153C9.46645 2.94153 8.70238 3.18567 8.064 3.64C7.68162 3.91319 7.22359 4.06039 6.75364 4.06111C6.28369 4.06182 5.82521 3.91602 5.442 3.644L5.267 3.519C4.109 2.692 2.5 3.519 2.5 4.943V18C2.5 18.9946 2.89509 19.9484 3.59835 20.6516C4.30161 21.3549 5.25544 21.75 6.25 21.75ZM8.936 4.86C9.31995 4.58744 9.77915 4.44102 10.25 4.44102C10.7209 4.44102 11.1801 4.58744 11.564 4.86C12.2007 5.31512 12.9636 5.56021 13.7462 5.56111C14.5288 5.562 15.2923 5.31866 15.93 4.865L16.105 4.74C16.1423 4.71341 16.1863 4.6976 16.232 4.6943C16.2777 4.691 16.3235 4.70034 16.3643 4.7213C16.4051 4.74225 16.4393 4.77402 16.4632 4.81312C16.4872 4.85222 16.4999 4.89715 16.5 4.943V19C16.5 19.45 16.608 19.875 16.8 20.25H6.25C5.65326 20.25 5.08097 20.0129 4.65901 19.591C4.23705 19.169 4 18.5967 4 18V4.943C4.00012 4.89715 4.01284 4.85222 4.03678 4.81312C4.06072 4.77402 4.09495 4.74225 4.13573 4.7213C4.1765 4.70034 4.22226 4.691 4.26798 4.6943C4.31371 4.6976 4.35765 4.71341 4.395 4.74L4.57 4.865C5.20775 5.31866 5.97116 5.562 6.7538 5.56111C7.53644 5.56021 8.29929 5.31512 8.936 4.86ZM18 19V14.25H20.5V19C20.5 19.3315 20.3683 19.6495 20.1339 19.8839C19.8995 20.1183 19.5815 20.25 19.25 20.25C18.9185 20.25 18.6005 20.1183 18.3661 19.8839C18.1317 19.6495 18 19.3315 18 19Z" fill="#2C1D10" fill-opacity="0.75"/>
</svg>
