<svg width="18" height="18" viewBox="0 0 18 18" fill="none" xmlns="http://www.w3.org/2000/svg">
    <path d="M13.7996 15.5625H13.6271C11.6835 15.3519 9.81616 14.6892 8.17458 13.6275C6.64952 12.6556 5.35449 11.3631 4.37958 9.84001C3.31569 8.194 2.65293 6.3213 2.44458 4.37251C2.4207 4.14008 2.44428 3.90522 2.5139 3.68219C2.58352 3.45915 2.69772 3.25258 2.84958 3.07501C2.99729 2.89506 3.1796 2.74658 3.38572 2.63837C3.59185 2.53015 3.81759 2.4644 4.04958 2.44501H5.99958C6.42192 2.44543 6.83018 2.59686 7.15065 2.87194C7.47111 3.14701 7.68266 3.52762 7.74708 3.94501C7.81836 4.48115 7.95176 5.00719 8.14458 5.51251C8.26191 5.83004 8.28613 6.17448 8.21438 6.50531C8.14264 6.83614 7.97791 7.1396 7.73958 7.38001L7.28208 7.83751C8.0024 8.97466 8.96862 9.93575 10.1096 10.65L10.5671 10.2C10.8075 9.96168 11.111 9.79695 11.4418 9.72521C11.7726 9.65346 12.117 9.67768 12.4346 9.79501C12.9405 9.98595 13.4663 10.1193 14.0021 10.1925C14.4266 10.2563 14.8132 10.4729 15.0894 10.8015C15.3656 11.1302 15.5123 11.5483 15.5021 11.9775V13.7775C15.5021 14.2456 15.3166 14.6947 14.9863 15.0264C14.656 15.3582 14.2077 15.5455 13.7396 15.5475L13.7996 15.5625ZM5.99958 3.56251H4.20708C4.11907 3.56833 4.03315 3.59193 3.95452 3.63189C3.87588 3.67185 3.80617 3.72734 3.74958 3.79501C3.69451 3.85839 3.65283 3.93226 3.62706 4.01218C3.60128 4.09209 3.59193 4.17639 3.59958 4.26001C3.78227 6.02741 4.37555 7.72764 5.33208 9.22501C6.21456 10.61 7.38957 11.785 8.77458 12.6675C10.2725 13.6349 11.9748 14.2408 13.7471 14.4375C13.8392 14.4422 13.9313 14.4281 14.0178 14.3958C14.1042 14.3636 14.1831 14.3139 14.2496 14.25C14.369 14.1276 14.4362 13.9635 14.4371 13.7925V12C14.4405 11.8422 14.3858 11.6886 14.2835 11.5683C14.1813 11.4481 14.0384 11.3695 13.8821 11.3475C13.2625 11.2643 12.6538 11.1134 12.0671 10.8975C11.9515 10.8543 11.826 10.8447 11.7052 10.87C11.5844 10.8952 11.4732 10.9541 11.3846 11.04L10.6346 11.79C10.5467 11.8757 10.4336 11.9307 10.312 11.9469C10.1904 11.9631 10.0668 11.9396 9.95958 11.88C8.35922 10.9757 7.03456 9.6536 6.12708 8.05501C6.06497 7.94848 6.0401 7.82431 6.05639 7.70208C6.07269 7.57985 6.12923 7.46653 6.21708 7.38001L6.96708 6.63001C7.05309 6.54303 7.11226 6.43313 7.13753 6.31345C7.1628 6.19376 7.15309 6.06933 7.10958 5.95501C6.89309 5.36846 6.74218 4.75975 6.65958 4.14001C6.64098 3.97896 6.56308 3.8306 6.44107 3.72384C6.31906 3.61709 6.16168 3.55957 5.99958 3.56251Z" fill="black"/>
</svg>
