
<svg width="24" height="24" viewBox="0 0 24 24" fill="none" xmlns="http://www.w3.org/2000/svg">
<path fill-rule="evenodd" clip-rule="evenodd" d="M10.875 3.37501C11.0821 3.37501 11.25 3.54289 11.25 3.75001V10.875C11.25 11.0821 11.0821 11.25 10.875 11.25H3.75C3.54288 11.25 3.375 11.0821 3.375 10.875V3.75001C3.375 3.54289 3.54288 3.37501 3.75 3.37501H10.875ZM9.65625 4.96876H4.96875V9.65626H9.65625V4.96876ZM21.2187 7.0239C21.3652 7.17034 21.3652 7.40778 21.2187 7.55422L16.9761 11.7969C16.8296 11.9433 16.5922 11.9433 16.4458 11.7969L12.2031 7.55422C12.0567 7.40778 12.0567 7.17034 12.2031 7.0239L16.4458 2.78125C16.5922 2.63481 16.8296 2.63481 16.9761 2.78125L21.2187 7.0239ZM19.23 7.28905L16.7109 4.77001L14.1919 7.28907L16.7109 9.80814L19.23 7.28905ZM10.875 12.75C11.0821 12.75 11.25 12.9179 11.25 13.125V20.25C11.25 20.4571 11.0821 20.625 10.875 20.625H3.75C3.54288 20.625 3.375 20.4571 3.375 20.25V13.125C3.375 12.9179 3.54288 12.75 3.75 12.75H10.875ZM9.65625 14.3438H4.96875V19.0313H9.65625V14.3438ZM20.25 12.75C20.4571 12.75 20.625 12.9179 20.625 13.125V20.25C20.625 20.4571 20.4571 20.625 20.25 20.625H13.125C12.9179 20.625 12.75 20.4571 12.75 20.25V13.125C12.75 12.9179 12.9179 12.75 13.125 12.75H20.25ZM19.0312 14.3438H14.3438V19.0313H19.0312V14.3438Z" fill="#2C1D10" fill-opacity="0.75"/>
</svg>

