<svg width="24" height="24" viewBox="0 0 24 24" fill="none" xmlns="http://www.w3.org/2000/svg">
<path d="M21.5 12.0001C21.5 13.879 20.9428 15.7157 19.899 17.278C18.8551 18.8402 17.3714 20.0579 15.6355 20.7769C13.8996 21.4959 11.9895 21.6841 10.1466 21.3175C8.30383 20.951 6.61109 20.0462 5.28249 18.7176C3.95389 17.389 3.0491 15.6962 2.68254 13.8534C2.31598 12.0106 2.50412 10.1005 3.22315 8.36457C3.94218 6.62867 5.15982 5.14497 6.72209 4.1011C8.28435 3.05723 10.1211 2.50006 12 2.50006C13.849 2.49946 15.658 3.03845 17.2052 4.05094C18.7523 5.06343 19.9704 6.50541 20.71 8.20006M21.5 5.50006L21.025 8.67506L18 8.00006" stroke="#231F20" stroke-opacity="0.75" stroke-width="1.5" stroke-linecap="round" stroke-linejoin="round"/>
<path d="M10 11.0001V9.50006C10 8.96963 10.2107 8.46092 10.5858 8.08585C10.9609 7.71078 11.4696 7.50006 12 7.50006C12.5304 7.50006 13.0391 7.71078 13.4142 8.08585C13.7893 8.46092 14 8.96963 14 9.50006V11.0001M11.25 16.5001H12.75C13.923 16.5001 14.51 16.5001 14.913 16.1901C15.017 16.1102 15.1102 16.0171 15.19 15.9131C15.5 15.5091 15.5 14.9231 15.5 13.7501C15.5 12.5771 15.5 11.9901 15.19 11.5871C15.1102 11.483 15.017 11.3899 14.913 11.3101C14.509 11.0001 13.923 11.0001 12.75 11.0001H11.25C10.077 11.0001 9.49 11.0001 9.087 11.3101C8.98295 11.3899 8.88983 11.483 8.81 11.5871C8.5 11.9911 8.5 12.5771 8.5 13.7501C8.5 14.9231 8.5 15.5101 8.81 15.9131C8.88983 16.0171 8.98295 16.1102 9.087 16.1901C9.491 16.5001 10.077 16.5001 11.25 16.5001Z" stroke="#231F20" stroke-opacity="0.75" stroke-width="1.5" stroke-linecap="round" stroke-linejoin="round"/>
</svg>
